<?xml version="1.0" standalone="no"?>
<!DOCTYPE svg PUBLIC "-//W3C//DTD SVG 20010904//EN"
 "http://www.w3.org/TR/2001/REC-SVG-20010904/DTD/svg10.dtd">
<svg version="1.0" xmlns="http://www.w3.org/2000/svg"
 width="500.000000pt" height="500.000000pt" viewBox="0 0 500.000000 500.000000"
 preserveAspectRatio="xMidYMid meet">
<metadata>
Created by potrace 1.16, written by Peter Selinger 2001-2019
</metadata>
<g transform="translate(0.000000,500.000000) scale(0.100000,-0.100000)"
fill="#000000" stroke="none">
<path d="M0 2500 l0 -2500 2500 0 2500 0 0 2500 0 2500 -2500 0 -2500 0 0
-2500z m2635 2254 c657 -84 1256 -473 1621 -1051 86 -135 179 -334 228 -483
192 -586 147 -1205 -126 -1743 -321 -632 -914 -1083 -1600 -1216 -118 -23
-280 -41 -374 -41 l-65 0 3 92 3 93 111 6 c220 13 425 56 618 128 731 275
1242 924 1342 1704 20 157 15 435 -11 587 -43 258 -137 518 -263 730 -302 507
-795 860 -1372 984 -116 25 -292 46 -382 46 l-48 0 0 88 c0 49 3 92 8 96 8 9
155 0 307 -20z m63 -419 c379 -80 700 -259 972 -541 342 -355 519 -795 520
-1293 0 -381 -104 -723 -319 -1042 -278 -414 -693 -689 -1200 -796 -113 -24
-148 -27 -341 -27 -240 0 -327 11 -530 69 -419 120 -800 402 -1043 770 -186
282 -307 664 -307 967 l0 68 73 0 73 0 12 -137 c14 -155 45 -305 92 -438 215
-610 758 -1052 1395 -1136 132 -17 455 -6 570 19 477 107 866 380 1117 784
481 773 264 1801 -489 2315 -157 108 -375 206 -558 252 -91 23 -292 51 -366
51 l-49 0 0 77 0 76 128 -6 c78 -3 175 -16 250 -32z m-2098 -1430 l0 -35 -50
0 c-49 0 -50 -1 -50 -30 0 -29 1 -30 51 -30 49 0 50 -1 47 -27 -3 -26 -7 -28
-50 -31 -46 -3 -48 -5 -48 -33 0 -28 1 -29 50 -29 49 0 50 -1 50 -30 l0 -30
-90 0 -90 0 0 148 c0 82 3 152 7 155 3 4 44 7 90 7 l83 0 0 -35z m164 -5 c14
-22 28 -40 30 -40 2 0 16 18 31 40 24 35 33 40 66 40 22 0 39 -4 39 -8 0 -4
-20 -36 -45 -70 -25 -34 -45 -64 -45 -67 0 -4 25 -40 55 -80 30 -41 55 -77 55
-80 0 -3 -20 -5 -44 -5 -42 0 -45 2 -76 50 -18 27 -36 48 -40 45 -5 -3 -21
-25 -37 -50 -26 -42 -31 -45 -70 -45 -24 0 -43 2 -43 5 0 2 25 39 55 81 60 84
60 76 1 159 -20 27 -36 53 -36 57 0 5 17 8 39 8 34 0 42 -5 65 -40z m391 26
c18 -8 38 -23 44 -34 14 -26 14 -78 0 -104 -12 -23 -66 -48 -104 -48 -24 0
-25 -3 -25 -55 l0 -55 -40 0 -40 0 0 148 c0 82 3 152 7 155 12 13 123 7 158
-7z m290 -21 c0 -29 -1 -30 -53 -33 -51 -3 -53 -4 -50 -30 3 -25 7 -27 51 -30
45 -3 47 -5 47 -33 0 -28 -1 -29 -50 -29 -49 0 -50 -1 -50 -30 0 -30 1 -30 55
-30 54 0 55 0 55 -30 l0 -30 -90 0 -90 0 0 155 0 156 88 -3 87 -3 0 -30z m229
21 c62 -26 72 -103 19 -152 l-25 -24 52 -60 52 -60 -45 0 c-44 0 -48 3 -89 55
l-43 56 -3 -56 -3 -55 -34 0 -35 0 0 155 0 155 60 0 c33 0 75 -6 94 -14z m206
-141 l0 -155 -35 0 -35 0 0 155 0 155 35 0 35 0 0 -155z m191 70 c18 -47 35
-82 38 -79 3 3 19 40 36 82 30 74 32 77 67 80 l36 3 6 -48 c3 -26 8 -84 11
-128 4 -44 9 -92 11 -107 5 -26 3 -28 -29 -28 -42 0 -47 10 -47 90 0 32 -4 61
-8 64 -4 2 -21 -31 -36 -75 -25 -69 -32 -80 -50 -77 -17 2 -27 21 -51 88 l-30
85 -9 -87 -8 -88 -34 0 c-21 0 -34 5 -34 13 0 26 22 273 26 285 2 6 19 12 38
12 35 0 35 -1 67 -85z m439 50 l0 -35 -50 0 c-49 0 -50 -1 -50 -30 0 -29 1
-30 51 -30 49 0 50 -1 47 -27 -3 -26 -7 -28 -50 -31 -46 -3 -48 -5 -48 -33 0
-28 1 -29 50 -29 49 0 50 -1 50 -30 l0 -30 -90 0 -90 0 0 148 c0 82 3 152 7
155 3 4 44 7 90 7 l83 0 0 -35z m197 -57 l58 -93 3 93 3 92 34 0 35 0 0 -155
0 -155 -34 0 c-32 0 -38 6 -93 91 l-58 91 -3 -91 -3 -91 -34 0 -35 0 0 155 0
155 34 0 c32 0 38 -5 93 -92z m403 57 c0 -33 -2 -35 -35 -35 l-35 0 0 -120 0
-120 -35 0 -35 0 0 120 0 120 -35 0 c-33 0 -35 2 -35 35 l0 35 105 0 105 0 0
-35z m272 -115 c32 -79 58 -148 58 -152 0 -4 -15 -8 -34 -8 -28 0 -36 5 -46
30 -12 28 -15 30 -70 30 -55 0 -59 -1 -69 -30 -8 -26 -15 -30 -45 -30 -20 0
-36 4 -36 8 0 4 21 59 46 122 80 199 69 182 106 178 31 -3 33 -6 90 -148z
m176 23 l3 -123 49 0 c49 0 50 -1 50 -30 l0 -30 -85 0 -85 0 0 156 0 155 33
-3 32 -3 3 -122z"/>
</g>
</svg>
